<svg width="31" height="36" viewBox="0 0 31 36" fill="none" xmlns="http://www.w3.org/2000/svg">
<path d="M15.6486 0.28125L19.2514 2.53072L17.2004 3.65546L15.6486 2.82844L2.8543 10.448V18.9938L13.1852 25.2901L11.0582 26.459L0.553711 19.9972V9.24607L15.6486 0.28125Z" fill="#3C97F2"/>
<path d="M20.8547 3.61145L5.84668 12.2455V18.3323L7.85426 19.49V13.3703L20.8547 6.11453L27.9083 10.1614V11.7823L30.1656 13.0394V8.94843L20.8547 3.61145Z" fill="#3C97F2"/>
<path d="M15.3509 35.2032L11.748 32.9537L13.799 31.829L15.3509 32.667L28.156 25.0364V16.4907L17.8143 10.2053L19.9521 9.0365L30.4457 15.4982V26.2495L15.3509 35.2032Z" fill="#3C97F2"/>
<path d="M10.1468 31.873L25.1658 23.25V17.1631L23.1582 15.9944V22.1143L10.1468 29.37L3.09311 25.323V23.7021L0.835938 22.4562V26.536L10.1468 31.873Z" fill="#3C97F2"/>
</svg>
